<svg xmlns="http://www.w3.org/2000/svg" id="Camada_1" data-name="Camada 1" viewBox="0 0 246.28 156.49"><defs><style>.cls-1{fill:#fff;}.cls-2{fill:#c5484d;}</style></defs><path class="cls-1" d="M105.83,29.34a161.94,161.94,0,0,1,17.87,34l48.05-33.52Q192.52,62,192.53,87.66q0,46.71-62.57,97.66-11.18-10.73-20.78-10.73-11.62,0-25.48,7.83a37.08,37.08,0,0,0-6,2.9Q66.94,175,57.56,174.59q-16.1-.43-34,10.73L21.13,182a4.92,4.92,0,0,0,.9-1.45,9.6,9.6,0,0,1,1.34-2.13q14.75-24.79,14.75-41.34A23.22,23.22,0,0,0,33.2,122.3q-5.37-7.36-13.19-7.37-3.57,0-8,3.13l-2.91-3.13q6.7-11.62,16.09-11.62,8.94,0,15.87,7.6v-3.36A30.54,30.54,0,0,0,40.8,104l-.45-6.93q-2-33.07-15-46.7a11.34,11.34,0,0,0-8.27-3.58,8.5,8.5,0,0,0-7.82,4.8A21,21,0,0,0,6.61,62l-4.7-.9c.15-.74.3-1.6.45-2.57s.37-2,.67-3.24Q8,30.45,25.6,30.46q11.85,0,21,11.39a56.26,56.26,0,0,1,11,22.35V64ZM44.93,152.69q-5.48,9.84-11.73,20.12l.89-.45,1.34-.67Q58.46,159,73.2,159a122.49,122.49,0,0,1,13.18,1.34q3.59-5.58,6.71-11.73a131.51,131.51,0,0,0,5.81-13.3q-12.74-8-22.57-8-9.39,0-21.45,5.81v-.23Q50.4,142.86,44.93,152.69ZM62,96.83v1.11q0,12.53-4.7,28.16a62.43,62.43,0,0,1,13.86-3.57,12.54,12.54,0,0,0,2.46-.23h2.23q9.84,0,25,8.27,5.81-17.88,5.81-31.06V96.83a1.77,1.77,0,0,1-.22-1.12V94.37q-13,6.93-22.8,6.93H80.35q-11.17-1.12-18.55-5.81v.44A1.3,1.3,0,0,0,62,96.83Zm-.23-6.48q11,5.58,21,5.58a38.29,38.29,0,0,0,23.24-7.37q-.67-3.8-2.68-11.62-4.7-17.65-14.08-29.5L58.67,69.34A73.14,73.14,0,0,1,61.8,90.35Zm24.14,81.56a1.4,1.4,0,0,1,.67-.33,2.06,2.06,0,0,0,.89-.56,7.57,7.57,0,0,0,1.57-.67q24.35-13.18,40.67-13.19a57.53,57.53,0,0,1,15.64,2.68q6.26-7.59,13.41-21.45a40.45,40.45,0,0,0,2-3.8Q149,127,136.89,127a36.09,36.09,0,0,0-18.55,4.69v-.23Q107.84,150,85.94,171.91Zm35.75-47.15a58.28,58.28,0,0,1,15.64-2.46q11.63,0,25.48,7.6a5.6,5.6,0,0,0,.67-1.56,122.33,122.33,0,0,0,5.36-22.8c.15-1.19.26-2.38.34-3.57s.11-2.31.11-3.36V97.05a5.2,5.2,0,0,0-.22-1.56A47.28,47.28,0,0,1,149,99.73a51.39,51.39,0,0,1-20.12-4.24v-.23A60.82,60.82,0,0,1,121.69,124.76Zm7.15-34.41A48.79,48.79,0,0,0,149.18,95q7.38,0,19.89-4.69-2.91-27.27-14.53-42.46L125.27,67.55A75.93,75.93,0,0,1,128.84,90.35Z" transform="translate(-1.91 -29.34)"></path><circle class="cls-2" cx="234.45" cy="144.66" r="11.83"></circle></svg>